<svg width="30" height="30" viewBox="0 0 30 30" fill="none" xmlns="http://www.w3.org/2000/svg">
<circle cx="15" cy="15" r="15" fill="#2B2E35"/>
<path d="M11.906 8.19105L15.0045 6.43583C15.0483 6.41093 15.0916 6.41145 15.1344 6.43733L18.4896 8.41793C18.5344 8.44478 18.5796 8.44478 18.6254 8.41793L20.5224 7.3134C20.5831 7.2786 20.5836 7.24328 20.5239 7.20743L15.1299 4.02239C15.0792 3.99254 15.0289 3.99254 14.9792 4.02239L9.58361 7.21043C9.57588 7.21493 9.56943 7.2213 9.56493 7.22903C9.56051 7.23675 9.55811 7.24553 9.55811 7.25445C9.55811 7.26338 9.56051 7.27223 9.56493 7.27995C9.56943 7.28768 9.57588 7.29405 9.58361 7.29848L11.5001 8.42985C11.5146 8.43855 11.5311 8.4432 11.5482 8.4435C11.5652 8.44373 11.5821 8.43953 11.5971 8.43135C11.6607 8.39655 11.7159 8.35223 11.7627 8.29853C11.7936 8.26365 11.8413 8.22788 11.906 8.19105Z" stroke="#2B2E35" stroke-width="0.39801"/>
<path d="M15.8536 10.0429C16.2546 9.86871 16.6382 9.63733 17.0044 9.34881C17.0511 9.31296 17.0492 9.27966 16.9984 9.24883L15.0924 8.11146C15.0596 8.09256 15.0273 8.09308 14.9954 8.11296L13.1118 9.24733C13.065 9.27613 13.0631 9.30748 13.1058 9.34131C13.6402 9.76521 14.0536 10.0363 14.3462 10.1548C14.6417 10.2752 14.8606 10.3826 15.0029 10.4772C15.0417 10.504 15.082 10.505 15.1238 10.4802C15.2372 10.4125 15.3456 10.3423 15.4491 10.2697C15.5745 10.1802 15.7094 10.1045 15.8536 10.0429Z" stroke="#2B2E35" stroke-width="0.39801"/>
<path d="M8.04925 10.539C8.0491 10.5303 8.0512 10.5217 8.0554 10.5142C8.0596 10.5065 8.06568 10.5002 8.07318 10.4957L10.0344 9.35391C10.0419 9.34971 10.0482 9.34364 10.0526 9.33621C10.0569 9.32886 10.0594 9.32039 10.0596 9.31184C10.0597 9.30321 10.0575 9.29474 10.0534 9.28716C10.0493 9.27966 10.0432 9.27329 10.0359 9.26886L8.0761 8.10764C8.06845 8.10306 8.05968 8.10059 8.05075 8.10059C8.04183 8.10059 8.03305 8.10306 8.0254 8.10764L6.02389 9.28821C6.01645 9.29271 6.01032 9.29909 6.00612 9.30666C6.00193 9.31424 5.99982 9.32286 6.00001 9.33156L6.00747 11.6823C6.00729 11.691 6.00939 11.6995 6.01359 11.7071C6.01779 11.7148 6.02391 11.7211 6.03135 11.7256L7.97313 12.8614C7.9807 12.8659 7.98933 12.8683 7.9981 12.8684C8.00695 12.8685 8.01565 12.8662 8.02323 12.8618C8.03088 12.8574 8.03718 12.8509 8.04145 12.8433C8.0458 12.8356 8.04798 12.8269 8.04775 12.8181L8.04925 10.539Z" stroke="#2B2E35" stroke-width="0.39801"/>
<path d="M22.0644 12.8158C22.0643 12.8248 22.0665 12.8337 22.071 12.8416C22.0753 12.8494 22.0818 12.8559 22.0895 12.8605C22.0972 12.865 22.106 12.8674 22.115 12.8674C22.124 12.8675 22.1328 12.8651 22.1406 12.8606L24.0883 11.7114C24.096 11.707 24.1023 11.7007 24.1068 11.6931C24.1112 11.6855 24.1136 11.6769 24.1137 11.6681L24.1182 9.33823C24.1181 9.32946 24.1157 9.32083 24.1112 9.31326C24.1068 9.30568 24.1005 9.29938 24.0928 9.29496L22.0794 8.10538C22.0716 8.10096 22.0629 8.09863 22.054 8.09863C22.0451 8.09863 22.0363 8.10096 22.0287 8.10538L20.0838 9.26511C20.0762 9.26968 20.0698 9.27621 20.0655 9.28401C20.0611 9.29181 20.0589 9.30066 20.0591 9.30958C20.0592 9.31851 20.0617 9.32728 20.0664 9.33493C20.0709 9.34258 20.0775 9.34888 20.0853 9.35316L22.0436 10.4965C22.0514 10.501 22.0579 10.5075 22.0623 10.5154C22.0668 10.5232 22.0691 10.5322 22.0689 10.5412L22.0644 12.8158Z" stroke="#2B2E35" stroke-width="0.39801"/>
<path d="M15.1138 12.1823C15.0949 12.1936 15.0732 12.1996 15.0511 12.1996C15.029 12.1996 15.0074 12.1936 14.9884 12.1823L11.6287 10.1853C11.6098 10.174 11.5881 10.168 11.566 10.168C11.544 10.168 11.5223 10.174 11.5033 10.1853L9.56752 11.336C9.54922 11.347 9.53407 11.3625 9.52357 11.3811C9.51314 11.3996 9.50767 11.4206 9.50782 11.442L9.50932 13.7017C9.50917 13.723 9.51464 13.744 9.52507 13.7626C9.53557 13.7812 9.55072 13.7968 9.56902 13.8076L12.9541 15.7942C12.9724 15.8051 12.9876 15.8207 12.998 15.8392C13.0085 15.8578 13.014 15.8788 13.0138 15.9002L13.0123 19.8823C13.0122 19.9036 13.0176 19.9246 13.0281 19.9432C13.0385 19.9618 13.0537 19.9773 13.072 19.9882L15.0019 21.124C15.0208 21.1354 15.0425 21.1414 15.0646 21.1414C15.0866 21.1414 15.1083 21.1354 15.1273 21.124L17.0511 19.9912C17.0695 19.9803 17.0846 19.9648 17.095 19.9462C17.1055 19.9276 17.1109 19.9066 17.1108 19.8853V15.9002C17.1106 15.8788 17.1161 15.8578 17.1265 15.8392C17.137 15.8207 17.1522 15.8051 17.1705 15.7942L20.5556 13.8061C20.5742 13.7954 20.5897 13.78 20.6004 13.7614C20.6111 13.7428 20.6168 13.7217 20.6168 13.7002L20.6093 11.4331C20.6092 11.4119 20.6037 11.3912 20.5932 11.3729C20.5828 11.3546 20.5678 11.3393 20.5496 11.3286L18.6272 10.1868C18.6083 10.1755 18.5866 10.1695 18.5645 10.1695C18.5425 10.1695 18.5208 10.1755 18.5019 10.1868L15.1138 12.1823Z" stroke="#2B2E35" stroke-width="0.39801"/>
<path d="M18.5626 23.0971C18.5627 23.1095 18.5661 23.1215 18.5724 23.1321C18.5786 23.1428 18.5876 23.1515 18.5983 23.1576C18.609 23.1637 18.6212 23.1668 18.6336 23.1666C18.6459 23.1665 18.6579 23.1631 18.6686 23.1568L24.082 19.9747C24.0926 19.9684 24.1014 19.9595 24.1074 19.9487C24.1134 19.9379 24.1165 19.9259 24.1164 19.9135L24.1149 13.5314C24.1147 13.5191 24.1113 13.507 24.1051 13.4964C24.0988 13.4858 24.0899 13.477 24.0791 13.4709C24.0684 13.4648 24.0562 13.4618 24.0439 13.4619C24.0315 13.4621 24.0195 13.4654 24.0089 13.4717L22.1044 14.5971C22.0938 14.6034 22.0851 14.6123 22.079 14.6231C22.073 14.6339 22.0699 14.6459 22.0701 14.6583L22.0656 18.6941C22.0657 18.7064 22.0626 18.7186 22.0566 18.7293C22.0506 18.74 22.0419 18.749 22.0313 18.7553L18.5925 20.7747C18.5819 20.781 18.5731 20.7899 18.5671 20.8007C18.561 20.8115 18.558 20.8236 18.5581 20.8359L18.5626 23.0971Z" stroke="#2B2E35" stroke-width="0.39801"/>
<path d="M6.0044 19.931C6.00426 19.9401 6.00653 19.949 6.01099 19.9569C6.01546 19.9648 6.02194 19.9713 6.02977 19.9758L11.485 23.1698C11.4927 23.1743 11.5014 23.1767 11.5102 23.1767C11.5191 23.1767 11.5278 23.1744 11.5355 23.1701C11.5431 23.1656 11.5496 23.1593 11.5541 23.1518C11.5586 23.1441 11.561 23.1354 11.5611 23.1266V20.8325C11.561 20.8238 11.5586 20.8151 11.5542 20.8076C11.5497 20.8 11.5434 20.7937 11.5358 20.7893L8.07603 18.7505C8.06845 18.746 8.06208 18.7397 8.05765 18.7322C8.05315 18.7246 8.05075 18.716 8.05068 18.7072L8.04618 14.649C8.0461 14.6402 8.0437 14.6315 8.0392 14.624C8.03478 14.6164 8.0284 14.6101 8.02083 14.6057L6.0835 13.4609C6.0757 13.4564 6.06693 13.4541 6.05792 13.4541C6.04894 13.4541 6.04014 13.4566 6.0324 13.4611C6.02466 13.4657 6.01827 13.4722 6.01387 13.4801C6.00948 13.4879 6.00724 13.4967 6.00739 13.5057L6.0044 19.931Z" stroke="#2B2E35" stroke-width="0.39801"/>
<path d="M11.5601 16.7227C11.5601 16.7137 11.5577 16.7048 11.5532 16.6969C11.5488 16.6891 11.5424 16.6825 11.5346 16.6779L9.5899 15.5152C9.58195 15.5105 9.57295 15.5079 9.56372 15.5078C9.55442 15.5077 9.54535 15.51 9.53732 15.5146C9.5293 15.5191 9.52255 15.5257 9.5179 15.5337C9.51325 15.5417 9.51077 15.5508 9.51077 15.56L9.50635 17.854C9.50635 17.863 9.50867 17.872 9.5131 17.8798C9.5176 17.8876 9.52397 17.8942 9.5317 17.8988L11.4824 19.0495C11.4904 19.0543 11.4994 19.0569 11.5086 19.057C11.5179 19.0571 11.527 19.0548 11.535 19.0502C11.543 19.0456 11.5498 19.039 11.5544 19.0311C11.5591 19.0231 11.5616 19.0141 11.5616 19.0048L11.5601 16.7227Z" stroke="#2B2E35" stroke-width="0.39801"/>
<path d="M20.6073 15.555C20.6073 15.5461 20.6049 15.5374 20.6003 15.5298C20.5958 15.5222 20.5894 15.5159 20.5817 15.5115C20.574 15.5071 20.5653 15.5048 20.5565 15.5049C20.5476 15.5049 20.5389 15.5072 20.5312 15.5116L18.5835 16.6714C18.5759 16.6758 18.5695 16.6821 18.5651 16.6897C18.5607 16.6972 18.5583 16.7059 18.5581 16.7146L18.5626 18.9997C18.5627 19.0086 18.5652 19.0172 18.5697 19.0249C18.5742 19.0325 18.5805 19.0388 18.5883 19.0432C18.5959 19.0476 18.6047 19.0498 18.6135 19.0498C18.6224 19.0498 18.631 19.0474 18.6387 19.043L20.5835 17.8997C20.5911 17.8954 20.5974 17.8891 20.6019 17.8814C20.6064 17.8738 20.6088 17.8652 20.6088 17.8564L20.6073 15.555Z" stroke="#2B2E35" stroke-width="0.39801"/>
<path d="M13.0044 24.0322C13.0045 24.041 13.0069 24.0496 13.0114 24.0572C13.0158 24.0648 13.0222 24.0711 13.0298 24.0755L15.0238 25.2666C15.0315 25.271 15.0403 25.2733 15.0492 25.2733C15.0581 25.2733 15.0668 25.271 15.0745 25.2666L17.085 24.0725C17.0926 24.0681 17.0989 24.0618 17.1034 24.0542C17.1079 24.0466 17.1103 24.038 17.1103 24.0292L17.1118 21.7307C17.1118 21.7218 17.1093 21.7132 17.1048 21.7056C17.1003 21.6979 17.0939 21.6916 17.0862 21.6873C17.0785 21.6829 17.0698 21.6806 17.061 21.6807C17.0521 21.6807 17.0434 21.683 17.0357 21.6874L15.076 22.8546C15.0683 22.8591 15.0596 22.8614 15.0507 22.8614C15.0418 22.8614 15.033 22.8591 15.0253 22.8546L13.082 21.6889C13.0744 21.6845 13.0657 21.6822 13.0568 21.6821C13.048 21.6821 13.0393 21.6844 13.0315 21.6888C13.0239 21.6931 13.0174 21.6994 13.0129 21.7071C13.0084 21.7147 13.006 21.7233 13.0059 21.7322L13.0044 24.0322Z" stroke="#2B2E35" stroke-width="0.39801"/>
<path d="M12.1993 9.06908C12.1587 9.11565 12.1108 9.1541 12.0556 9.18428C12.0425 9.19137 12.0279 9.19502 12.0131 9.19482C11.9984 9.19456 11.984 9.19053 11.9715 9.18298L10.3092 8.2017C10.3025 8.19786 10.2969 8.19233 10.293 8.18563C10.2892 8.17893 10.2871 8.17126 10.2871 8.16352C10.2871 8.15578 10.2892 8.14817 10.293 8.14147C10.2969 8.13477 10.3025 8.12924 10.3092 8.12533L14.989 5.36024C15.0321 5.33435 15.0757 5.33435 15.1197 5.36024L19.7981 8.12273C19.8499 8.15382 19.8495 8.18446 19.7968 8.21465L18.1515 9.17264C18.1118 9.19593 18.0726 9.19593 18.0337 9.17264L15.1236 7.4548C15.0865 7.43236 15.049 7.4319 15.011 7.4535L12.3235 8.97586C12.2674 9.0078 12.226 9.03883 12.1993 9.06908Z" fill="#F0B90B"/>
<path d="M15.3969 10.7784C15.3071 10.8414 15.2131 10.9022 15.1147 10.961C15.0785 10.9825 15.0435 10.9817 15.0098 10.9584C14.8864 10.8763 14.6966 10.7832 14.4403 10.6787C14.1865 10.576 13.828 10.3409 13.3645 9.97319C13.3274 9.94385 13.3291 9.91666 13.3697 9.89168L15.0033 8.9078C15.031 8.89056 15.059 8.89011 15.0875 8.9065L16.7406 9.89298C16.7847 9.91972 16.7864 9.9486 16.7458 9.9797C16.4282 10.2299 16.0955 10.4306 15.7477 10.5817C15.6226 10.6351 15.5057 10.7008 15.3969 10.7784Z" fill="#F0B90B"/>
<path d="M8.97856 11.0133L8.97726 12.9901C8.97745 12.9977 8.97556 13.0052 8.97179 13.0119C8.96808 13.0186 8.96262 13.0241 8.95598 13.0279C8.94941 13.0318 8.94187 13.0338 8.93419 13.0337C8.92658 13.0337 8.9191 13.0315 8.91253 13.0276L7.22837 12.0424C7.22191 12.0386 7.2166 12.0331 7.21296 12.0265C7.20932 12.0199 7.20749 12.0124 7.20765 12.0049L7.20118 9.96604C7.20102 9.95849 7.20285 9.95108 7.20648 9.94451C7.21013 9.93787 7.21544 9.93241 7.22189 9.9285L8.95787 8.90455C8.96451 8.90052 8.97212 8.89844 8.97986 8.89844C8.9876 8.89844 8.99521 8.90052 9.00184 8.90455L10.7016 9.91166C10.708 9.91556 10.7132 9.92102 10.7168 9.92759C10.7204 9.9341 10.7223 9.94145 10.7222 9.94893C10.722 9.95641 10.7199 9.9637 10.7161 9.97014C10.7123 9.97651 10.7068 9.98178 10.7003 9.98549L8.99931 10.9757C8.9928 10.9796 8.98753 10.9852 8.98389 10.9917C8.98025 10.9984 8.97843 11.0058 8.97856 11.0133Z" fill="#F0B90B"/>
<path d="M21.1343 12.9879L21.1382 11.0151C21.1384 11.0072 21.1364 10.9995 21.1325 10.9927C21.1287 10.9858 21.123 10.9802 21.1162 10.9763L19.4178 9.98464C19.411 9.98087 19.4053 9.9754 19.4013 9.96877C19.3973 9.96213 19.3952 9.95459 19.395 9.94678C19.3949 9.93904 19.3968 9.93143 19.4006 9.92466C19.4043 9.9179 19.4099 9.91224 19.4165 9.90827L21.1033 8.9024C21.1099 8.89857 21.1176 8.89648 21.1253 8.89648C21.133 8.89648 21.1406 8.89857 21.1473 8.9024L22.8936 9.93416C22.9002 9.93794 22.9057 9.9434 22.9095 9.94997C22.9135 9.9566 22.9155 9.96402 22.9156 9.9717L22.9118 11.9924C22.9116 12.0001 22.9095 12.0076 22.9057 12.0141C22.9018 12.0207 22.8963 12.0262 22.8897 12.03L21.2004 13.0268C21.1936 13.0307 21.186 13.0327 21.1782 13.0327C21.1704 13.0326 21.1628 13.0305 21.1561 13.0266C21.1494 13.0226 21.1438 13.017 21.14 13.0102C21.1362 13.0034 21.1342 12.9957 21.1343 12.9879Z" fill="#F0B90B"/>
<path d="M15.1059 12.4385L18.0445 10.7077C18.0609 10.6979 18.0797 10.6927 18.0988 10.6927C18.118 10.6927 18.1368 10.6979 18.1532 10.7077L19.8206 11.6981C19.8363 11.7074 19.8493 11.7206 19.8584 11.7365C19.8675 11.7524 19.8723 11.7703 19.8724 11.7887L19.8789 13.755C19.8789 13.7737 19.8739 13.792 19.8646 13.8081C19.8553 13.8242 19.8419 13.8376 19.8258 13.8469L16.8898 15.5713C16.8739 15.5807 16.8607 15.5942 16.8516 15.6103C16.8426 15.6264 16.8378 15.6446 16.838 15.6632V19.1195C16.8381 19.1381 16.8334 19.1563 16.8243 19.1724C16.8153 19.1885 16.8021 19.202 16.7862 19.2115L15.1176 20.194C15.1011 20.2038 15.0823 20.209 15.0632 20.209C15.0441 20.209 15.0253 20.2038 15.0088 20.194L13.335 19.2089C13.3191 19.1994 13.306 19.1859 13.2969 19.1698C13.2878 19.1537 13.2831 19.1355 13.2832 19.1169L13.2845 15.6632C13.2847 15.6446 13.2799 15.6264 13.2708 15.6103C13.2618 15.5942 13.2486 15.5807 13.2327 15.5713L10.2967 13.8482C10.2809 13.8388 10.2677 13.8253 10.2586 13.8092C10.2496 13.7931 10.2448 13.7748 10.245 13.7563L10.2437 11.7964C10.2435 11.7779 10.2483 11.7597 10.2573 11.7436C10.2664 11.7275 10.2796 11.714 10.2954 11.7045L11.9744 10.7064C11.9909 10.6966 12.0097 10.6914 12.0288 10.6914C12.0479 10.6914 12.0667 10.6966 12.0832 10.7064L14.9972 12.4385C15.0136 12.4483 15.0324 12.4535 15.0516 12.4535C15.0707 12.4535 15.0895 12.4483 15.1059 12.4385Z" fill="#F0B90B"/>
<path d="M18.0972 21.9048L18.0933 19.9436C18.0931 19.9329 18.0958 19.9224 18.1011 19.9131C18.1063 19.9038 18.1139 19.896 18.1231 19.8905L21.1057 18.139C21.1148 18.1336 21.1224 18.1258 21.1277 18.1165C21.1329 18.1071 21.1355 18.0966 21.1354 18.0859L21.1393 14.5855C21.1392 14.5749 21.1418 14.5643 21.1471 14.555C21.1523 14.5457 21.1599 14.5379 21.1691 14.5325L22.8209 13.5564C22.8301 13.5509 22.8406 13.548 22.8513 13.5479C22.862 13.5477 22.8725 13.5505 22.8818 13.5557C22.8912 13.5609 22.8989 13.5685 22.9044 13.5778C22.9098 13.587 22.9127 13.5975 22.9128 13.6082L22.9141 19.1436C22.9143 19.1543 22.9115 19.1648 22.9063 19.1741C22.9011 19.1834 22.8935 19.1912 22.8843 19.1967L18.1891 21.9566C18.1798 21.9621 18.1694 21.965 18.1587 21.9651C18.148 21.9653 18.1374 21.9625 18.1281 21.9573C18.1188 21.9521 18.111 21.9445 18.1056 21.9352C18.1002 21.926 18.0972 21.9155 18.0972 21.9048Z" fill="#F0B90B"/>
<path d="M7.20508 19.1596L7.20767 13.5867C7.20755 13.5789 7.20949 13.5712 7.2133 13.5644C7.21711 13.5577 7.22265 13.552 7.22937 13.548C7.23608 13.5441 7.24372 13.542 7.2515 13.542C7.25932 13.5419 7.26693 13.5439 7.27369 13.5478L8.954 14.5408C8.96057 14.5446 8.9661 14.5501 8.96994 14.5566C8.97384 14.5632 8.97592 14.5707 8.97599 14.5783L8.97989 18.0981C8.97995 18.1058 8.98204 18.1133 8.98594 18.1198C8.98978 18.1264 8.99531 18.1319 9.00188 18.1357L12.0026 19.904C12.0092 19.9078 12.0147 19.9133 12.0186 19.9198C12.0224 19.9265 12.0245 19.9339 12.0246 19.9416V21.9312C12.0245 21.9389 12.0224 21.9464 12.0185 21.953C12.0146 21.9597 12.009 21.9651 12.0024 21.9689C11.9957 21.9727 11.9881 21.9747 11.9805 21.9747C11.9728 21.9746 11.9652 21.9726 11.9586 21.9688L7.22709 19.1985C7.22029 19.1946 7.21467 19.1889 7.2108 19.182C7.20693 19.1752 7.20496 19.1675 7.20508 19.1596Z" fill="#F0B90B"/>
<path d="M12.0235 16.376L12.0248 18.3553C12.0248 18.3634 12.0226 18.3712 12.0186 18.3781C12.0145 18.385 12.0087 18.3907 12.0017 18.3947C11.9948 18.3987 11.9869 18.4007 11.9788 18.4006C11.9708 18.4005 11.963 18.3983 11.9561 18.3941L10.2642 17.3961C10.2575 17.392 10.2519 17.3864 10.248 17.3795C10.2442 17.3728 10.2422 17.365 10.2422 17.3572L10.246 15.3675C10.246 15.3595 10.2482 15.3517 10.2522 15.3447C10.2562 15.3378 10.2621 15.3321 10.2691 15.3281C10.276 15.3242 10.2839 15.3221 10.292 15.3223C10.3 15.3223 10.3078 15.3246 10.3147 15.3287L12.0014 16.3371C12.0082 16.3412 12.0137 16.3469 12.0175 16.3536C12.0214 16.3605 12.0235 16.3681 12.0235 16.376Z" fill="#F0B90B"/>
<path d="M19.8706 15.3638L19.8719 17.36C19.8719 17.3676 19.8698 17.375 19.8659 17.3816C19.862 17.3882 19.8566 17.3937 19.8499 17.3975L18.1632 18.3891C18.1565 18.393 18.149 18.395 18.1413 18.395C18.1337 18.395 18.126 18.393 18.1194 18.3892C18.1127 18.3854 18.1072 18.3799 18.1033 18.3734C18.0994 18.3667 18.0972 18.3592 18.0972 18.3515L18.0933 16.3696C18.0934 16.362 18.0955 16.3545 18.0993 16.3479C18.1031 16.3413 18.1087 16.3359 18.1152 16.3321L19.8046 15.3262C19.8113 15.3224 19.8188 15.3204 19.8265 15.3203C19.8342 15.3203 19.8417 15.3223 19.8484 15.3261C19.8551 15.3299 19.8606 15.3353 19.8645 15.342C19.8685 15.3485 19.8706 15.3561 19.8706 15.3638Z" fill="#F0B90B"/>
<path d="M13.2764 22.7163L13.2777 20.7215C13.2778 20.7138 13.2799 20.7063 13.2838 20.6997C13.2877 20.6931 13.2933 20.6876 13.2999 20.6838C13.3066 20.68 13.3142 20.6781 13.3218 20.6781C13.3295 20.6781 13.3371 20.6801 13.3437 20.684L15.0291 21.695C15.0358 21.6988 15.0435 21.7009 15.0512 21.7009C15.0589 21.7009 15.0665 21.6988 15.0732 21.695L16.7729 20.6827C16.7796 20.6788 16.7871 20.6768 16.7948 20.6768C16.8025 20.6768 16.81 20.6787 16.8167 20.6825C16.8234 20.6863 16.8289 20.6918 16.8328 20.6984C16.8367 20.705 16.8388 20.7125 16.8389 20.7202L16.8376 22.7138C16.8375 22.7214 16.8355 22.7289 16.8316 22.7355C16.8277 22.742 16.8222 22.7475 16.8156 22.7513L15.0719 23.7869C15.0652 23.7908 15.0576 23.7929 15.0499 23.7929C15.0422 23.7929 15.0345 23.7908 15.0279 23.7869L13.2984 22.7539C13.2918 22.7501 13.2863 22.7446 13.2824 22.7381C13.2786 22.7315 13.2765 22.724 13.2764 22.7163Z" fill="#F0B90B"/>
</svg>
