<svg width="30" height="30" viewBox="0 0 30 30" fill="none" xmlns="http://www.w3.org/2000/svg">
<circle cx="15" cy="15" r="15" fill="black"/>
<path d="M9.6063 19.4504C9.65411 19.3928 9.71131 19.347 9.77452 19.3157C9.83773 19.2845 9.90565 19.2684 9.97425 19.2686H22.7406C22.9678 19.2686 23.0877 19.6061 22.9246 19.8029L20.4065 22.8179C20.3587 22.8756 20.3015 22.9214 20.2383 22.9527C20.1751 22.9839 20.1071 22.9999 20.0385 22.9998H7.25941C7.03224 22.9998 6.91225 22.6623 7.07543 22.4673L9.6031 19.4504H9.6063Z" fill="url(#paint0_linear_2035_37005)"/>
<path d="M9.6063 8.18188C9.65411 8.12421 9.71131 8.0784 9.77452 8.04715C9.83773 8.01591 9.90565 7.99988 9.97425 8H22.7406C22.9678 8 23.0877 8.3375 22.9246 8.5325L20.4065 11.5494C20.3587 11.6071 20.3015 11.6529 20.2383 11.6841C20.1751 11.7154 20.1071 11.7314 20.0385 11.7313H7.25941C7.03224 11.7313 6.91225 11.3938 7.07543 11.1969L9.6031 8.18188H9.6063Z" fill="url(#paint1_linear_2035_37005)"/>
<path d="M20.3947 13.7844C20.3469 13.7268 20.2897 13.6809 20.2265 13.6497C20.1632 13.6185 20.0953 13.6024 20.0267 13.6025H7.26038C7.03321 13.6025 6.91323 13.94 7.07641 14.135L9.59448 17.1501C9.64228 17.2077 9.69949 17.2535 9.7627 17.2848C9.82591 17.316 9.89383 17.3321 9.96243 17.3319H22.7288C22.9559 17.3319 23.0759 16.9944 22.9127 16.7994L20.3947 13.7844Z" fill="url(#paint2_linear_2035_37005)"/>
<defs>
<linearGradient id="paint0_linear_2035_37005" x1="7.32152" y1="22.2498" x2="22.7441" y2="20.605" gradientUnits="userSpaceOnUse">
<stop stop-color="#9648FC"/>
<stop offset="1" stop-color="#399AB4"/>
</linearGradient>
<linearGradient id="paint1_linear_2035_37005" x1="6.36165" y1="11.5625" x2="23.2909" y2="9.08629" gradientUnits="userSpaceOnUse">
<stop stop-color="#5B7ACD"/>
<stop offset="1" stop-color="#03CB8C"/>
</linearGradient>
<linearGradient id="paint2_linear_2035_37005" x1="7.32156" y1="13.25" x2="25.2039" y2="15.7242" gradientUnits="userSpaceOnUse">
<stop stop-color="#6A70DC"/>
<stop offset="1" stop-color="#2EA7AE"/>
</linearGradient>
</defs>
</svg>
